<svg width="184" height="48" viewBox="0 0 246 48" fill="none" xmlns="http://www.w3.org/2000/svg">
<path d="M73.4598 37.1801V11.8115H88.9085C90.2111 11.8115 91.3809 12.0697 92.4429 12.5861C93.4966 13.1025 94.3346 13.827 94.9651 14.7682C95.5874 15.7009 95.9027 16.8003 95.9027 18.0579C95.9027 19.1656 95.7118 20.1151 95.3302 20.8979C94.9485 21.6891 94.4507 22.3221 93.8202 22.8218C93.1979 23.3132 92.4927 23.6796 91.7045 23.9295V24.0794C92.6088 24.2793 93.4302 24.6291 94.1686 25.1288C94.9071 25.6368 95.4878 26.3198 95.9193 27.1776C96.3507 28.0354 96.5664 29.0848 96.5664 30.3175C96.5664 31.7666 96.2262 33.0076 95.5376 34.032C94.849 35.0564 93.9446 35.8392 92.8163 36.3806C91.6879 36.9219 90.4268 37.1968 89.0246 37.1968H73.4598V37.1801ZM80.0392 21.8973H86.6269C87.1661 21.8973 87.6225 21.7891 88.0041 21.5642C88.3858 21.3393 88.6762 21.0312 88.8836 20.6397C89.091 20.2483 89.1989 19.7819 89.1989 19.2406C89.1989 18.4494 88.9666 17.8414 88.5019 17.3916C88.0373 16.9502 87.4482 16.7254 86.7347 16.7254H80.0392V21.8973ZM80.0392 32.0831H87.2076C87.9958 32.0831 88.6264 31.8499 89.0993 31.3835C89.5805 30.9171 89.8128 30.2009 89.8128 29.2431C89.8128 28.7267 89.705 28.2686 89.4975 27.8605C89.2901 27.4524 88.9831 27.1443 88.5766 26.9194C88.1701 26.6946 87.6722 26.5863 87.0832 26.5863H80.0226V32.0831H80.0392Z" fill="#1B1A19"/>
<path d="M99.7192 37.1801V11.8115H106.307V37.1801H99.7192Z" fill="#1B1A19"/>
<path d="M122.195 37.6215C118.121 37.6215 115.027 36.5388 112.911 34.3734C110.787 32.208 109.733 28.9099 109.733 24.4792C109.733 21.5476 110.256 19.1156 111.293 17.1834C112.339 15.2512 113.857 13.8021 115.856 12.8276C117.856 11.8532 120.262 11.3701 123.083 11.3701C124.775 11.3701 126.368 11.57 127.862 11.9615C129.355 12.3529 130.683 12.9359 131.836 13.7188C132.989 14.4933 133.885 15.4678 134.524 16.6337C135.163 17.7997 135.478 19.1739 135.478 20.748H129.007C129.007 20.0817 128.858 19.4904 128.567 18.9574C128.277 18.4244 127.862 17.983 127.331 17.6248C126.8 17.2667 126.194 17.0002 125.514 16.8086C124.825 16.6254 124.103 16.5338 123.34 16.5338C122.212 16.5338 121.216 16.6837 120.345 16.9752C119.474 17.2667 118.76 17.7248 118.196 18.3411C117.632 18.9574 117.209 19.707 116.927 20.5898C116.645 21.4726 116.504 22.5137 116.504 23.688V25.312C116.504 26.8861 116.752 28.202 117.242 29.2597C117.732 30.3175 118.478 31.1087 119.466 31.6417C120.461 32.1747 121.681 32.4329 123.124 32.4329C124.253 32.4329 125.265 32.258 126.161 31.9165C127.057 31.5751 127.771 31.0753 128.293 30.4174C128.824 29.7678 129.082 28.9849 129.082 28.0688V27.8855H122.278V23.2299H135.487V37.1468H131.662L131.04 34.49C130.276 35.1813 129.463 35.756 128.592 36.2224C127.721 36.6887 126.767 37.0385 125.721 37.2551C124.659 37.5133 123.489 37.6215 122.195 37.6215Z" fill="#1B1A19"/>
<path d="M139.519 37.1801V11.8115H154.196C156.063 11.8115 157.614 12.1613 158.867 12.8609C160.12 13.5605 161.057 14.5266 161.68 15.7426C162.302 16.9586 162.617 18.3244 162.617 19.8236C162.617 21.4476 162.244 22.8968 161.497 24.1627C160.75 25.4286 159.697 26.4197 158.353 27.136L163.43 37.1801H156.071L151.881 28.2437H146.107V37.1801H139.519ZM146.098 23.3382H152.902C153.806 23.3382 154.536 23.0384 155.092 22.4304C155.648 21.8307 155.922 21.0229 155.922 20.0151C155.922 19.3488 155.797 18.7825 155.557 18.3161C155.308 17.8497 154.968 17.4832 154.528 17.2251C154.088 16.9669 153.549 16.8336 152.91 16.8336H146.107V23.3382H146.098Z" fill="#FF7700"/>
<path d="M178.024 37.6215C175.253 37.6215 172.88 37.1385 170.906 36.1641C168.931 35.1896 167.421 33.7321 166.359 31.7916C165.305 29.8511 164.774 27.4108 164.774 24.4792C164.774 21.5476 165.305 19.1156 166.359 17.1834C167.413 15.2512 168.931 13.8021 170.906 12.8276C172.88 11.8532 175.253 11.3701 178.024 11.3701C180.795 11.3701 183.168 11.8532 185.143 12.8276C187.118 13.8021 188.628 15.2512 189.69 17.1834C190.743 19.1156 191.274 21.5476 191.274 24.4792C191.274 27.4108 190.743 29.8427 189.69 31.7916C188.636 33.7405 187.118 35.1979 185.143 36.1641C183.168 37.1385 180.795 37.6215 178.024 37.6215ZM178.024 32.4579C179.078 32.4579 180.007 32.2996 180.82 31.9748C181.633 31.6583 182.314 31.1836 182.861 30.5756C183.417 29.9593 183.824 29.2098 184.098 28.3269C184.363 27.4441 184.504 26.4447 184.504 25.337V23.713C184.504 22.5803 184.371 21.5725 184.098 20.6814C183.824 19.7986 183.417 19.0407 182.861 18.4327C182.314 17.8164 181.625 17.35 180.82 17.0335C180.007 16.717 179.078 16.5505 178.024 16.5505C176.946 16.5505 176 16.7087 175.195 17.0335C174.382 17.35 173.71 17.8247 173.171 18.4327C172.631 19.049 172.225 19.7986 171.959 20.6814C171.686 21.5642 171.553 22.5803 171.553 23.713V25.337C171.553 26.4447 171.686 27.4441 171.959 28.3269C172.225 29.2098 172.631 29.9677 173.171 30.5756C173.71 31.1919 174.382 31.6583 175.195 31.9748C176 32.2913 176.946 32.4579 178.024 32.4579Z" fill="#FF7700"/>
<path d="M206.167 37.6215C203.446 37.6215 201.131 37.1468 199.231 36.1974C197.331 35.2479 195.887 33.8071 194.908 31.8582C193.929 29.9177 193.44 27.4525 193.44 24.4709C193.44 20.0901 194.535 16.8086 196.734 14.6349C198.924 12.4528 202.077 11.3701 206.167 11.3701C208.449 11.3701 210.473 11.7616 212.232 12.5361C213.999 13.3107 215.377 14.4683 216.372 16.0091C217.368 17.5499 217.866 19.4571 217.866 21.7474H211.427C211.427 20.6647 211.212 19.7319 210.78 18.9574C210.349 18.1828 209.751 17.5832 208.98 17.1668C208.208 16.7503 207.271 16.5421 206.167 16.5421C204.79 16.5421 203.67 16.8253 202.782 17.3916C201.903 17.958 201.247 18.7742 200.832 19.8319C200.417 20.8896 200.21 22.1722 200.21 23.6713V25.337C200.21 26.8361 200.417 28.1271 200.832 29.1931C201.247 30.2675 201.894 31.0753 202.765 31.6334C203.637 32.1914 204.757 32.4662 206.134 32.4662C207.312 32.4662 208.308 32.2663 209.129 31.8749C209.95 31.4834 210.573 30.9004 211.004 30.1176C211.436 29.343 211.651 28.4102 211.651 27.3275H217.866C217.866 29.6179 217.384 31.5251 216.414 33.0492C215.443 34.5733 214.082 35.7226 212.332 36.4805C210.573 37.2384 208.515 37.6215 206.167 37.6215Z" fill="#FF7700"/>
<path d="M221.06 37.1801V11.8115H227.647V23.0717L237.653 11.8115H245.817L236.401 22.1888L246 37.1801H238.201L231.837 26.6946L227.647 30.5756V37.1885H221.06V37.1801Z" fill="#FF7700"/>
<path d="M33.7016 3C29.0471 3 24.9734 5.98993 23.5546 10.4373L21.0324 18.3494H17.1163C12.5779 18.3494 8.52911 21.2477 7.04398 25.5536L0 46H12.2129H36.4561H65.4368V3H33.7016Z" fill="white"/>
<path d="M23.5546 10.4373L21.0324 18.3494H17.1163C12.5779 18.3494 8.52911 21.2477 7.04398 25.5536L0 46H65.4368V3H33.7016C29.0471 3 24.9734 5.98993 23.5546 10.4373ZM2.71305 44.0595L8.86928 26.1865C10.0806 22.6552 13.3993 20.2899 17.1163 20.2899H20.4101L12.8268 44.0595H2.71305ZM63.5037 44.0595H14.8513L25.3882 11.0287C26.5497 7.38911 29.8934 4.94054 33.7016 4.94054H63.5037V44.0595Z" fill="#1B1A19"/>
<path d="M39.7748 16.3006H37.8417C37.8417 15.0513 36.8295 14.0353 35.585 14.0353C34.3404 14.0353 33.3282 15.0513 33.3282 16.3006H31.3951C31.3951 13.9853 33.2702 12.103 35.5767 12.103C37.8998 12.103 39.7748 13.9853 39.7748 16.3006Z" fill="#1B1A19"/>
<path d="M56.2938 16.3006H54.3606C54.3606 15.0513 53.3484 14.0353 52.1039 14.0353C50.8594 14.0353 49.8472 15.0513 49.8472 16.3006H47.914C47.914 13.9853 49.7891 12.103 52.0956 12.103C54.4021 12.103 56.2938 13.9853 56.2938 16.3006Z" fill="#1B1A19"/>
<path d="M43.4254 30.9088V28.9682C47.6983 28.9682 51.1746 25.4786 51.1746 21.1894H53.0995C53.0995 26.553 48.7603 30.9088 43.4254 30.9088Z" fill="#1B1A19"/>
</svg>
