<svg width="20" height="20" viewBox="0 0 91 60" fill="none" xmlns="http://www.w3.org/2000/svg">
<path d="M46.5227 0C40.0975 0 34.474 4.12739 32.5155 10.2667L29.0337 21.1888H23.6279C17.363 21.1888 11.7738 25.1897 9.72373 31.1336L0 59.3585H16.859H50.3251H90.331V0H46.5227Z" fill="white"/>
<path d="M32.5155 10.2667L29.0337 21.1888H23.6279C17.363 21.1888 11.7738 25.1897 9.72373 31.1336L0 59.3585H90.331V0H46.5227C40.0975 0 34.474 4.12739 32.5155 10.2667ZM3.74518 56.6797L12.2434 32.0074C13.9156 27.1327 18.4968 23.8676 23.6279 23.8676H28.1748L17.7066 56.6797H3.74518ZM87.6624 56.6797H20.5011L35.0466 11.083C36.6501 6.05887 41.2657 2.67878 46.5227 2.67878H87.6624V56.6797Z" fill="#1B1A19"/>
<path d="M54.9064 18.3605H52.2378C52.2378 16.636 50.8406 15.2334 49.1226 15.2334C47.4046 15.2334 46.0073 16.636 46.0073 18.3605H43.3387C43.3387 15.1644 45.9272 12.5661 49.1111 12.5661C52.318 12.5661 54.9064 15.1644 54.9064 18.3605Z" fill="#1B1A19"/>
<path d="M77.7097 18.3605H75.0411C75.0411 16.636 73.6438 15.2334 71.9258 15.2334C70.2078 15.2334 68.8106 16.636 68.8106 18.3605H66.142C66.142 15.1644 68.7304 12.5661 71.9144 12.5661C75.0983 12.5661 77.7097 15.1644 77.7097 18.3605Z" fill="#1B1A19"/>
<path d="M59.9458 38.5261V35.8473C65.8442 35.8473 70.643 31.0301 70.643 25.1092H73.3002C73.3002 32.5132 67.3102 38.5261 59.9458 38.5261Z" fill="#1B1A19"/>
</svg>
